<svg xmlns="http://www.w3.org/2000/svg" viewBox="0 0 450.1 73.1" xml:space="preserve"><title>The Tribune</title><path d="M15 0c11.2 0 20.6 2.1 28.4 2.1 3.8 0 6.9-.2 9.7-1.3-1.9 3.8-5.1 6.6-9.5 8.3v36.5c1.5-1.2 3.5-3.1 6-5.9C46.8 52.2 37.1 60.1 25 60.1 10.4 60.1.3 51.3.3 38.4c0-11 5.6-20.6 15.3-26.4-4.9 6.5-7.3 12.9-7.3 20.8 0 11 7.3 18.4 18 18.4 6.1 0 11.8-1.7 15.6-4.6V9.7c-2 .4-3.9.6-5.8.6-7.2 0-16.3-1.6-27-1.6-4.5 0-7.4.8-9.1 3.3C1 4.1 6.1 0 15 0zm8 41V19.9l-4 1.6v-1.7c4.3-1.5 9.1-3.6 14.7-6.6v23c0 6.4-3.4 8.8-13.3 11.4C22.4 46 23 44 23 41zM60.6 9.2c0-1.7-.7-3.5-2.4-5.3.9 0 1.7.1 2.4.1 4.3 0 8.2-1.3 12.3-3.9-1.5 2.1-2.8 5.2-2.8 9.6v18.8l16.5-11c1.5 2.7 4 4.2 6.5 4.2 1.1 0 2-.3 3.3-.9-.3 2.9-1.6 4.8-4.1 6.2v20.2c0 3.2.9 5.7 2.7 7.5-2-.4-3.9-.7-6-.7-4.7 0-7 1.2-7 3.1 0 1.4 1.1 2 2.7 3 2.5 1.5 3.7 2.7 3.7 5.7 0 4.2-2.7 6.7-7.8 7.1 1.6-2 2.4-4 2.4-6.6 0-4.2-2.6-6-2.6-8.4 0-1.9 2.5-3.8 2.5-11.1V28.2c-1.7-.5-2.9-1.7-4.2-3.7l-8.5 5.7v19c2.6.8 4.3 1.9 5.7 3.4-3.4 1.2-6.2 3.5-9.2 6.7-3.4-3.3-7-4.8-11.3-4.8 1.2-2.3 2.8-3.9 5.2-5V9.2zM106.5 49.2V30.7c0-3.8-.5-6.2-2.6-8.3 2 .4 4 .7 6 .7 6.8 0 12.9-2.2 16.9-5.7 2.5 6.1 6 10.8 10 13.8L115.9 43v5.7c4.3.7 8.1 2.2 11.9 4.5l5.8-3.7.8 1.5-12.6 8.5c-7.8-3.9-14-5.3-17.5-5.3-.6 0-1.6 0-3.2.2 1.5-2.5 3.2-4.2 5.4-5.2zm19.9-14.1c-2.7-4-5-8-7-12-1.1.4-2.4.6-3.5.8v17l10.5-5.8zM179.8 0c11.2 0 20.6 2.1 28.4 2.1 3.8 0 6.9-.2 9.7-1.3-1.9 3.8-5.1 6.6-9.5 8.3v36.5c1.5-1.2 3.5-3.1 6-5.9-2.8 12.5-12.5 20.5-24.6 20.5-14.6 0-24.7-8.8-24.7-21.7 0-11 5.6-20.6 15.3-26.4-4.9 6.5-7.3 12.9-7.3 20.8 0 11 7.3 18.4 18 18.4 6.1 0 11.8-1.7 15.6-4.6v-37c-2 .4-3.9.6-5.8.6-7.2 0-16.3-1.6-27-1.6-4.6 0-7.5.8-9.2 3.3 1-7.9 6.2-12 15.1-12zm8 41V19.9l-4 1.6v-1.7c4.3-1.5 9.1-3.6 14.7-6.6v23c0 6.4-3.4 8.8-13.3 11.4 1.9-1.6 2.6-3.6 2.6-6.6zM223.7 50.2V31.6c0-4.1-1.7-6-5.9-6.2v-1.1c3.5-1.7 6.6-3.9 9.5-6.6 4 2.3 5.7 5 5.8 9.5l8-9.7c2.4 3.9 4.4 5.8 6.8 5.8.5 0 1.3-.2 2.3-.4-1 5.4-4.3 8.4-8.3 8.4-3 0-5.3-1.7-6.4-4.9l-2.5 2.7V49c2.1.7 3.9 2 5.8 3.9L242 51l.7 1.4c-4.5 2.3-8.4 4.5-11.4 7.1-2.5-2.8-4.9-4.2-7.8-4.2-1.2 0-2.7.3-4.3.9.6-2.7 2-4.7 4.5-6zM251 24.3c3.4-1.2 6.2-3.5 9.2-6.7 3.5 3.4 6.9 4.8 10.9 4.8h.3c-1.2 2.3-2.8 3.9-5.2 5v17.9c0 4.1 1.2 5.9 5.9 6.3v1c-3.5 1.7-6.6 3.9-9.6 6.7-4.8-2.8-5.7-5.7-5.7-10.9V27.7c-2.6-.7-4.4-1.8-5.8-3.4zM261.6.1c1.4 3.1 3.4 4.7 5.7 4.7.7 0 1.5-.2 2.5-.6-.4 4.3-3.8 7.1-7.4 7.1-3.2 0-4.9-2.6-6.9-2.6-.8 0-1.4.3-2 1l-1-1.1c3.4-2.8 6.3-5.7 9.1-8.5zM341.2 52.4l8.5-5.7v-19c-2.5-.7-4.3-1.8-5.7-3.4 3.4-1.2 6.2-3.4 9.2-6.7 3.5 3.4 7 4.8 11 4.8h.3c-1.1 2.3-2.8 3.9-5.2 5v17.9c0 4.1 1.2 5.9 5.9 6.3v1c-3.5 1.7-6.6 3.9-9.6 6.7-4.2-2.5-5.8-5.3-5.8-10.2v-.7l-16.5 11c-1.6-2.8-3.7-4.1-6.4-4.1-1.1 0-2.3.3-3.6.9.4-2.9 1.8-4.9 4.3-6.3V32c0-4.4-1.1-6.2-6.1-7v-1c2.9-1 5.3-3.1 7.5-6.5 6.4 1.9 8.1 5.3 8.1 12v19.4c2 .6 3.2 1.6 4.1 3.5zM392 24.5l-8.5 5.7v19c2.6.8 4.3 1.9 5.7 3.4-3.4 1.2-6.2 3.5-9.2 7-3.4-3.5-7-5.1-11.3-5.1 1.2-2.3 2.8-3.9 5.2-5V31.6c0-4.1-1.2-5.8-5.9-6.2v-1.1c3.5-1.7 6.6-3.9 9.6-6.6 4.2 2.5 5.8 5.2 5.8 10.1v.7l16.5-11c1.5 2.7 4 4.2 6.5 4.2 1.1 0 2-.3 3.3-.9-.3 2.9-1.6 4.8-4.1 6.2v17.8c0 4.4 1.1 6.2 6.1 6.5v1c-2.9 1.6-5.3 3.7-7.5 6.7-6.4-1.6-8.1-4.9-8.1-11.6V28.2c-1.7-.5-2.9-1.7-4.1-3.7zM419.8 49.2V30.7c0-3.8-.5-6.2-2.6-8.3 2 .4 4 .7 6 .7 6.8 0 12.9-2.2 16.9-5.7 2.5 6.1 6 10.8 10 13.8L429.2 43v5.7c4.3.7 8.1 2.2 11.9 4.5l5.8-3.7.8 1.5-12.6 8.5c-7.8-3.9-14-5.3-17.5-5.3-.6 0-1.6 0-3.2.2 1.5-2.5 3.2-4.2 5.4-5.2zm19.9-14.1c-2.7-4-5-8-7-12-1.1.4-2.4.6-3.5.8v17l10.5-5.8zM317.3 23c-1.1.2-2 .2-2.8.2-4.3 0-8.2-1.9-12-5.7-4.6 2.4-8.6 3.8-11.7 4.3v-7.5c0-5.5.1-10.1 2.6-14.3-4.3 3.1-9.3 5.4-15 7 2.1 1.8 2.9 4.3 2.9 8.4V49c-2.3 1.2-4 2.9-5.3 5.3 1.6-.2 2.6-.2 3.2-.2 4.4 0 8.4 1.8 12.6 5.3 2.2-1.9 4.4-3.3 6.9-4.3 3.2-1.3 6.7-1.9 10.7-1.9 1.8 0 3.9.2 5.9.3-2-2.7-2.3-4.8-2.3-7.3V27.1c2-1.2 3.5-2.4 4.3-4.1zm-13.8 29.4c-1.2.2-2.4.6-3.5.9l-1.2-1.5c-2-2-4.6-3.2-7.9-3.4V23.3c1.1-.2 2.4-.5 3.5-.9 2 3.6 4.8 5.3 9.2 6.1v23.9h-.1z"/></svg>