<?xml version="1.0" encoding="utf-8"?>
<!-- Generator: Adobe Illustrator 26.3.1, SVG Export Plug-In . SVG Version: 6.00 Build 0)  -->
<svg version="1.1" id="Layer_1" xmlns="http://www.w3.org/2000/svg" xmlns:xlink="http://www.w3.org/1999/xlink" x="0px" y="0px"
	 viewBox="0 0 512 512" style="enable-background:new 0 0 512 512;" xml:space="preserve">
<path d="M160.7,8C253.4,8,331,25.5,395.3,25.5c31,0,56.8-2.1,79.7-10.9c-15.6,31-41.9,54.7-78.5,68.3v300.8
	c12.1-10.2,29.1-25.8,49.4-48.7C423,438.5,343.3,504,243.2,504c-120.4,0.2-203.6-72.9-203.6-179.1c0-90.6,45.9-169.6,126.3-217.6
	c-40.5,53.4-60.1,106.2-60.1,171.7c0,90.6,60.1,151.4,148.7,151.4c50.6,0,97.4-14.2,128.4-37.8V88.4c-16.3,3.3-31.7,4.7-48,4.7
	c-59.6,0-134.6-13.5-222.3-13.5c-37.8,0-61.5,6.8-75.7,27C45.1,41.8,87.6,8,160.7,8z M226.9,346V172.2l-33.1,13.5v-14.2
	c35.2-12.1,75-29.8,121.6-54.8v189.9c0,52.7-28.4,73.1-109.5,93.9C221.5,387.8,226.9,371,226.9,346z"/>
</svg>
