          <svg class="[ social__icon ]" id="ig_follow" xmlns="http://www.w3.org/2000/svg" viewBox="0 0 100 100">
            <title>Follow me on Instagram</title>
            <path d="M73.3 100H26.7C12 100 0 88 0 73.3V26.7C0 12 12 0 26.7 0h46.5C88 0 100 12 100 26.7v46.5C100 88 88 100 73.3 100zM26.7 7C15.8 7 7 15.8 7 26.7v46.5C7 84.2 15.8 93 26.7 93h46.5c11 0 19.8-8.8 19.8-19.7V26.7C93 15.8 84.2 7 73.3 7H26.7z"></path>
            <path d="M50.2 71.9c-4.7 0-9.3-1.5-13.1-4.4-4.7-3.5-7.8-8.7-8.7-14.5-1.8-12 6.5-23.3 18.6-25.1 2.2-.3 4.3-.3 6.5 0 9.7 1.4 17.2 8.9 18.6 18.6.9 5.8-.6 11.7-4.1 16.4-3.5 4.7-8.7 7.8-14.5 8.7-1.2.2-2.3.3-3.3.3zm0-37.2c-.7 0-1.5.1-2.2.2-8.2 1.2-14 8.9-12.7 17.2.6 4 2.7 7.5 5.9 9.9 3.2 2.4 7.2 3.4 11.2 2.8 8.2-1.2 14-8.9 12.7-17.2-1-6.6-6.1-11.8-12.7-12.7-.7-.2-1.5-.2-2.2-.2zM75.6 27.9c-1.9 0-3.5-1.6-3.5-3.5s1.5-3.5 3.5-3.5c1.9 0 3.5 1.6 3.5 3.5s-1.5 3.5-3.5 3.5z"></path>
          </svg>